<?xml version="1.0" standalone="no"?>
<!DOCTYPE svg PUBLIC "-//W3C//DTD SVG 20010904//EN"
 "http://www.w3.org/TR/2001/REC-SVG-20010904/DTD/svg10.dtd">
<svg version="1.0" xmlns="http://www.w3.org/2000/svg"
 width="1300.000000pt" height="867.000000pt" viewBox="0 0 1300.000000 867.000000"
 preserveAspectRatio="xMidYMid meet">

<g transform="translate(0.000000,867.000000) scale(0.100000,-0.100000)"
fill="#000000" stroke="none">
<path d="M4230 7215 c-46 -15 -120 -70 -164 -122 -20 -23 -31 -29 -54 -25 -74
10 -168 -46 -203 -123 -26 -57 -25 -158 2 -232 17 -46 38 -74 103 -138 l81
-80 -42 -42 c-23 -23 -56 -69 -73 -102 -31 -63 -70 -203 -70 -257 l0 -30 68
32 c137 66 263 97 294 72 16 -12 16 -17 -4 -73 -61 -180 36 -375 188 -375 61
0 122 46 159 119 l17 33 19 -31 c73 -120 174 -359 224 -531 85 -296 104 -461
115 -995 4 -240 13 -435 19 -455 5 -19 19 -71 30 -115 113 -454 389 -838 797
-1105 157 -103 453 -232 640 -280 l41 -10 -17 -64 c-56 -200 -72 -492 -37
-669 10 -48 20 -94 23 -102 5 -13 -9 -15 -89 -15 -111 0 -182 -19 -281 -74
-78 -44 -169 -125 -208 -185 -46 -73 -32 -77 36 -14 119 112 246 171 386 180
l75 4 -52 -29 c-161 -92 -286 -226 -328 -353 -31 -92 -13 -89 54 9 35 50 87
117 117 147 56 56 145 115 177 115 10 0 34 8 55 19 20 10 47 22 59 25 l23 7
-21 -48 c-22 -49 -109 -382 -109 -415 0 -42 17 -11 53 94 48 141 100 254 160
343 l46 68 68 -1 c84 -1 233 20 235 33 0 6 -63 21 -140 34 l-141 24 -8 46
c-14 84 -8 350 10 467 18 114 62 294 75 305 4 4 39 2 77 -3 120 -16 427 -13
554 6 62 10 117 14 121 9 4 -4 12 -49 19 -100 26 -208 88 -454 147 -582 19
-41 34 -77 34 -81 0 -4 -19 -13 -42 -21 -97 -32 -222 -138 -278 -235 -36 -62
-81 -179 -73 -188 10 -10 33 -7 33 5 0 5 12 36 28 67 38 78 140 178 231 226
79 41 80 39 15 -41 -92 -113 -170 -273 -198 -405 -32 -155 -28 -163 26 -50 21
42 55 104 76 137 21 33 57 94 81 135 23 41 58 93 77 115 l35 40 -6 -40 c-29
-174 -32 -305 -11 -426 12 -65 48 -169 58 -169 2 0 3 60 3 133 0 207 34 486
71 575 11 27 18 32 46 32 71 -1 398 55 398 67 0 9 -19 13 -63 13 -35 0 -132 3
-215 7 l-152 6 -20 63 c-40 131 -90 454 -105 679 l-7 100 98 33 c406 137 767
420 1008 789 169 257 307 631 357 959 12 81 13 82 82 160 193 217 445 614 491
773 30 101 17 213 -29 251 -10 8 -42 17 -71 20 l-53 5 51 85 c154 257 218 514
161 640 -11 25 -38 61 -60 82 -23 20 -44 47 -48 60 -16 52 -73 88 -140 88 -34
0 -35 1 -35 36 0 135 -276 150 -498 28 -88 -50 -200 -142 -278 -232 -114 -130
-206 -221 -274 -271 -86 -64 -457 -273 -590 -332 -640 -287 -1238 -262 -1690
70 -68 50 -152 158 -255 326 -209 343 -521 638 -828 786 l-85 40 -4 77 c-10
170 -99 271 -239 272 -31 0 -70 -5 -87 -11 -30 -10 -35 -8 -78 30 -89 78 -185
105 -274 76z m93 -82 c-7 -2 -21 -2 -30 0 -10 3 -4 5 12 5 17 0 24 -2 18 -5z
m-208 -133 c-3 -5 -12 -10 -18 -10 -7 0 -6 4 3 10 19 12 23 12 15 0z m702
-122 c-3 -8 -6 -5 -6 6 -1 11 2 17 5 13 3 -3 4 -12 1 -19z m-320 -34 c-3 -3
-12 -4 -19 -1 -8 3 -5 6 6 6 11 1 17 -2 13 -5z m181 -1 c-10 -2 -26 -2 -35 0
-10 3 -2 5 17 5 19 0 27 -2 18 -5z m57 -113 c234 -55 453 -192 721 -453 134
-130 156 -156 217 -260 82 -139 233 -360 273 -401 59 -60 282 -214 319 -220 6
-1 47 -17 93 -34 366 -143 820 -132 1267 30 148 53 385 170 525 259 203 128
287 198 449 368 149 157 238 234 325 282 38 21 36 17 -35 -58 -105 -110 -214
-277 -243 -370 -13 -42 11 -24 48 37 20 32 60 85 89 116 74 82 284 263 350
302 63 38 128 52 152 32 34 -28 17 -57 -93 -168 -105 -104 -228 -263 -337
-435 -43 -66 -50 -84 -38 -90 8 -5 16 -7 17 -5 2 1 51 67 110 145 127 169 251
298 361 374 134 92 182 102 198 39 22 -84 -7 -186 -96 -337 -85 -145 -165
-244 -333 -410 -161 -159 -198 -216 -86 -132 95 71 233 192 318 280 139 144
228 278 273 411 18 52 18 52 31 28 17 -31 17 -140 0 -200 -7 -25 -14 -54 -15
-65 -5 -36 -55 -148 -109 -245 -97 -169 -157 -253 -255 -355 -105 -108 -168
-204 -202 -304 -18 -53 -19 -65 -8 -72 23 -14 26 -12 68 67 103 191 184 280
306 339 44 21 101 40 128 43 44 4 47 3 47 -20 0 -77 -112 -332 -210 -479 -99
-148 -269 -369 -327 -425 -47 -46 -53 -56 -53 -93 0 -98 -74 -412 -136 -578
-135 -361 -424 -751 -704 -950 -316 -225 -785 -357 -1265 -357 -248 0 -413 27
-610 100 -78 29 -276 131 -287 148 -4 6 -8 8 -8 4 0 -5 -8 0 -18 10 -10 10
-54 38 -97 62 -198 107 -343 227 -464 382 -44 57 -89 113 -100 126 -12 12 -21
25 -21 27 0 2 -10 15 -23 29 -41 44 -136 241 -178 367 -68 209 -80 301 -89
734 -11 469 -28 624 -97 900 -53 214 -194 546 -303 714 -35 54 -41 72 -41 115
0 28 4 63 9 77 15 37 72 83 132 105 65 23 102 56 98 87 -3 20 -7 22 -61 19
-75 -5 -107 14 -107 62 0 37 19 58 73 81 20 8 37 22 37 30 0 21 -86 82 -145
101 -104 36 -208 16 -333 -61 -40 -24 -72 -42 -72 -39 0 17 35 66 71 98 116
106 285 135 494 86z m-525 17 c0 -1 -28 -29 -62 -62 -34 -33 -55 -51 -48 -40
21 29 110 112 110 102z m-234 -109 l29 -33 -32 29 c-31 28 -38 36 -30 36 2 0
16 -15 33 -32z m511 -24 c-3 -3 -12 -4 -19 -1 -8 3 -5 6 6 6 11 1 17 -2 13 -5z
m-64 -41 c-7 -2 -21 -2 -30 0 -10 3 -4 5 12 5 17 0 24 -2 18 -5z m-73 -17 c0
-2 -8 -10 -17 -17 -16 -13 -17 -12 -4 4 13 16 21 21 21 13z m141 -13 c13 -16
12 -17 -3 -4 -10 7 -18 15 -18 17 0 8 8 3 21 -13z m-43 -35 c7 -7 12 -24 12
-38 0 -14 -5 -31 -12 -38 -7 -7 -24 -12 -38 -12 -14 0 -31 5 -38 12 -7 7 -12
24 -12 38 0 14 5 31 12 38 7 7 24 12 38 12 14 0 31 -5 38 -12z m-141 -45 c-3
-10 -5 -4 -5 12 0 17 2 24 5 18 2 -7 2 -21 0 -30z m210 -10 c-3 -10 -5 -2 -5
17 0 19 2 27 5 18 2 -10 2 -26 0 -35z m-400 -45 c-3 -8 -6 -5 -6 6 -1 11 2 17
5 13 3 -3 4 -12 1 -19z m224 -15 c13 -16 12 -17 -3 -4 -10 7 -18 15 -18 17 0
8 8 3 21 -13z m159 13 c0 -2 -8 -10 -17 -17 -16 -13 -17 -12 -4 4 13 16 21 21
21 13z m-450 -131 c10 -12 10 -16 -1 -19 -8 -2 -40 -13 -71 -24 l-58 -21 20
51 c10 28 31 69 46 92 l28 41 11 -52 c7 -29 18 -59 25 -68z m341 87 c-7 -2
-18 1 -23 6 -8 8 -4 9 13 5 13 -4 18 -8 10 -11z m200 -9 c13 -16 12 -17 -3 -4
-17 13 -22 21 -14 21 2 0 10 -8 17 -17z m-21 -88 c0 -1 -12 -12 -27 -26 -20
-17 -23 -18 -10 -3 9 11 15 23 12 26 -3 2 2 5 10 5 8 0 15 -1 15 -2z m-83
-202 c-2 -16 -4 -5 -4 22 0 28 2 40 4 28 2 -13 2 -35 0 -50z m-232 -133 c3 -5
1 -10 -4 -10 -6 0 -11 5 -11 10 0 6 2 10 4 10 3 0 8 -4 11 -10z m46 -97 c13
-16 12 -17 -3 -4 -10 7 -18 15 -18 17 0 8 8 3 21 -13z m3213 -3560 c4 -43 11
-120 17 -171 6 -52 9 -96 6 -98 -8 -9 -59 324 -52 337 15 23 23 3 29 -68z
m-978 44 c3 -8 -4 -47 -15 -88 -33 -120 -59 -287 -68 -425 l-7 -129 -8 70 c-9
76 -3 241 13 345 19 128 50 240 65 240 8 0 17 -6 20 -13z"/>
<path d="M6697 3971 c-94 -31 -155 -79 -131 -103 3 -3 28 3 57 14 76 29 177
34 278 13 101 -20 198 -57 429 -162 96 -44 218 -96 270 -116 181 -68 380 -93
524 -66 32 6 60 8 63 5 9 -9 -74 -120 -148 -200 -218 -234 -503 -378 -808
-408 -139 -14 -254 2 -395 53 -160 58 -371 201 -501 341 -66 70 -165 210 -165
231 0 6 -3 8 -6 5 -13 -13 92 -196 176 -308 262 -346 658 -485 1086 -381 287
70 598 274 739 485 56 84 119 209 131 260 7 28 6 29 -22 23 -16 -4 -91 -12
-167 -19 -243 -21 -385 13 -752 182 -272 125 -383 162 -505 167 -74 2 -108 -1
-153 -16z"/>
<path d="M4394 6486 c-10 -26 4 -48 28 -44 17 2 23 10 23 28 0 18 -6 26 -23
28 -13 2 -25 -3 -28 -12z"/>
</g>
</svg>
